<svg width="42" height="24" viewBox="0 0 42 24" fill="none" xmlns="http://www.w3.org/2000/svg">
<rect y="0.5" width="42" height="23" rx="5" fill="white"/>
<rect y="0.5" width="42" height="23" rx="5" stroke="white"/>
<path fill-rule="evenodd" clip-rule="evenodd" d="M13.326 12.3311L12.506 10.3453L11.691 12.3311H13.326ZM21.185 14.4801L21.18 10.58L19.444 14.4801H18.394L16.652 10.576V14.4801H14.218L13.758 13.3693H11.265L10.8 14.4801H9.5L11.644 9.5H13.422L15.458 14.2156V9.5H17.412L18.979 12.8781L20.418 9.5H22.412V14.4801H21.185ZM24.318 13.4618V12.4704H26.946V11.4541H24.318V10.5481H27.319L28.629 12L27.261 13.4618H24.318ZM32.429 14.5H30.873L29.399 12.8502L27.867 14.5H23.125V9.5179H27.94L29.413 11.1508L30.936 9.5179H32.5L30.173 12.0089L32.429 14.5Z" fill="#101010"/>
</svg>
