<svg width="42" height="24" viewBox="0 0 42 24" fill="none" xmlns="http://www.w3.org/2000/svg">
<rect x="-0.000732422" y="0.5" width="42" height="23" rx="5" fill="white"/>
<rect x="-0.000732422" y="0.5" width="42" height="23" rx="5" stroke="#E7E7E7"/>
<g clip-path="url(#clip0_3100_41660)">
<path d="M14.9709 9.0276C14.7483 9.2968 14.392 9.50919 14.0357 9.47882C13.9911 9.11484 14.1655 8.72804 14.3697 8.48914C14.5923 8.21236 14.9821 8.01517 15.2975 8C15.3346 8.37918 15.1899 8.75079 14.9709 9.0276ZM15.2938 9.5509C14.7779 9.52057 14.3363 9.85043 14.0913 9.85043C13.8427 9.85043 13.4678 9.56607 13.0596 9.57365C12.5289 9.58123 12.0352 9.88834 11.7643 10.3775C11.2076 11.3558 11.6196 12.8044 12.1577 13.6006C12.4212 13.995 12.7367 14.4273 13.1523 14.4121C13.5458 14.3969 13.7016 14.1505 14.1767 14.1505C14.6555 14.1505 14.7928 14.4121 15.2085 14.4045C15.639 14.3969 15.9099 14.0102 16.1734 13.6158C16.474 13.1684 16.5965 12.7323 16.6039 12.7095C16.5965 12.702 15.7726 12.3797 15.7652 11.4089C15.7578 10.5975 16.4147 10.2107 16.4444 10.1879C16.0732 9.62673 15.4942 9.56607 15.2938 9.5509ZM18.2741 8.45122V14.3628H19.1722V12.3418H20.4155C21.5512 12.3418 22.3491 11.5455 22.3491 10.3927C22.3491 9.24 21.566 8.45126 20.4452 8.45126H18.274L18.2741 8.45122ZM19.1722 9.2248H20.2077C20.9871 9.2248 21.4324 9.64948 21.4324 10.3965C21.4324 11.1435 20.9871 11.572 20.2039 11.572H19.1722V9.2248ZM23.9895 14.4083C24.5537 14.4083 25.077 14.1164 25.3145 13.6537H25.3331V14.3628H26.1644V11.4203C26.1644 10.5671 25.4964 10.0173 24.4683 10.0173C23.5145 10.0173 22.8093 10.5747 22.7833 11.3407H23.5924C23.6592 10.9766 23.9895 10.7377 24.4423 10.7377C24.9916 10.7377 25.2997 10.9994 25.2997 11.481V11.8071L24.1788 11.8753C23.1359 11.9398 22.5718 12.3758 22.5718 13.1343C22.5718 13.9002 23.1545 14.4083 23.9895 14.4083ZM24.2308 13.7068C23.752 13.7068 23.4477 13.4717 23.4477 13.1115C23.4477 12.7399 23.7409 12.5238 24.3013 12.4896L25.2997 12.4252V12.7588C25.2997 13.3125 24.8395 13.7068 24.2308 13.7068H24.2308ZM27.2741 15.9706C28.15 15.9706 28.5619 15.6293 28.9219 14.5941L30.4993 10.0742H29.5863L28.5285 13.5665H28.51L27.4523 10.0742H26.5133L28.0349 14.378L27.9533 14.6396C27.816 15.0833 27.5933 15.2539 27.1962 15.2539C27.1257 15.2539 26.9884 15.2463 26.9327 15.2387V15.9478C26.9846 15.963 27.2073 15.9706 27.2741 15.9706Z" fill="#294711"/>
</g>
<defs>
<clipPath id="clip0_3100_41660">
<rect width="19" height="8" fill="white" transform="translate(11.4993 8)"/>
</clipPath>
</defs>
</svg>
