<svg width="42" height="24" viewBox="0 0 42 24" fill="none" xmlns="http://www.w3.org/2000/svg">
<rect x="-0.000732422" y="0.5" width="42" height="23" rx="5" fill="white"/>
<rect x="-0.000732422" y="0.5" width="42" height="23" rx="5" stroke="white"/>
<g clip-path="url(#clip0_3100_41648)">
<path d="M21.8415 9.52344C20.4363 9.52344 19.2961 10.6127 19.2961 11.957C19.2961 13.3863 20.3867 14.4547 21.8415 14.4547C23.2599 14.4547 24.3799 13.3721 24.3799 11.9851C24.3799 10.6062 23.2674 9.52344 21.8415 9.52344Z" fill="url(#paint0_linear_3100_41648)"/>
<g filter="url(#filter0_i_3100_41648)">
<path d="M21.8415 9.52344C20.4363 9.52344 19.2961 10.6127 19.2961 11.957C19.2961 13.3863 20.3867 14.4547 21.8415 14.4547C23.2599 14.4547 24.3799 13.3721 24.3799 11.9851C24.3799 10.6062 23.2674 9.52344 21.8415 9.52344Z" fill="#171415"/>
</g>
<path d="M7.39105 9.6068H6.02271V14.3425H7.3839C8.10612 14.3425 8.62843 14.1727 9.08663 13.7961C9.63026 13.3487 9.95265 12.6741 9.95265 11.9769C9.95265 10.5788 8.90001 9.6068 7.39105 9.6068ZM8.47925 13.1636C8.18505 13.427 7.80624 13.5408 7.20425 13.5408H6.95417V10.4087H7.20425C7.80624 10.4087 8.17052 10.5153 8.47925 10.792C8.80122 11.076 8.99323 11.5159 8.99323 11.9702C8.99323 12.4254 8.80122 12.8806 8.47925 13.1636ZM10.3824 14.3425H11.3124V9.6068H10.3825V14.3425H10.3824ZM13.5891 11.4234C13.0302 11.2179 12.8657 11.0824 12.8657 10.8277C12.8657 10.5292 13.1585 10.3022 13.56 10.3022C13.8391 10.3022 14.068 10.4157 14.3121 10.6847L14.7981 10.0537C14.3973 9.70506 13.918 9.52779 13.395 9.52779C12.5514 9.52779 11.9068 10.1103 11.9068 10.8836C11.9068 11.5374 12.2072 11.8709 13.0806 12.1841C13.4457 12.3113 13.6313 12.3961 13.7246 12.4541C13.9107 12.5748 14.0041 12.7447 14.0041 12.9433C14.0041 13.3274 13.6961 13.611 13.2804 13.611C12.8366 13.611 12.4792 13.3911 12.2644 12.9793L11.6639 13.5551C12.0925 14.1791 12.6079 14.457 13.3171 14.457C14.2832 14.457 14.9626 13.817 14.9626 12.9013C14.9626 12.1484 14.6486 11.8073 13.5891 11.4234ZM15.256 11.977C15.256 13.3703 16.3585 14.4494 17.7758 14.4494C18.1766 14.4494 18.52 14.3708 18.9427 14.1727V13.0856C18.5701 13.4553 18.2408 13.604 17.8183 13.604C16.8811 13.604 16.215 12.9292 16.215 11.9702C16.215 11.0617 16.9019 10.3444 17.7758 10.3444C18.2189 10.3444 18.5558 10.5005 18.9427 10.8768V9.78988C18.5348 9.58465 18.1979 9.5 17.7971 9.5C16.3869 9.5 15.256 10.6009 15.256 11.977ZM26.4856 12.7879L25.2116 9.6068H24.1952L26.2214 14.4635H26.7219L28.7834 9.60674H27.7746L26.4856 12.7879ZM29.2067 14.3426H31.8472V13.5408H30.1369V12.2617H31.7817V11.4598H30.1369V10.4087H31.8472V9.60686H29.2066V14.3426H29.2067ZM35.5321 11.0044C35.5321 10.1173 34.9175 9.6068 33.8433 9.6068H32.4618V14.3425H33.3931V12.4392H33.515L34.8026 14.3425H35.9478L34.4438 12.3477C35.1463 12.2052 35.5321 11.7292 35.5321 11.0044ZM33.664 11.7865H33.3931V10.3515H33.6789C34.2599 10.3515 34.5746 10.5937 34.5746 11.0545C34.5746 11.5299 34.2599 11.7865 33.664 11.7865Z" fill="#0B1015"/>
</g>
<defs>
<filter id="filter0_i_3100_41648" x="19.2961" y="9.52344" width="8.08374" height="7.93115" filterUnits="userSpaceOnUse" color-interpolation-filters="sRGB">
<feFlood flood-opacity="0" result="BackgroundImageFix"/>
<feBlend mode="normal" in="SourceGraphic" in2="BackgroundImageFix" result="shape"/>
<feColorMatrix in="SourceAlpha" type="matrix" values="0 0 0 0 0 0 0 0 0 0 0 0 0 0 0 0 0 0 127 0" result="hardAlpha"/>
<feOffset dx="3" dy="3"/>
<feGaussianBlur stdDeviation="4"/>
<feComposite in2="hardAlpha" operator="arithmetic" k2="-1" k3="1"/>
<feColorMatrix type="matrix" values="0 0 0 0 0 0 0 0 0 0 0 0 0 0 0 0 0 0 0.5 0"/>
<feBlend mode="normal" in2="shape" result="effect1_innerShadow_3100_41648"/>
</filter>
<linearGradient id="paint0_linear_3100_41648" x1="117.991" y1="54.2151" x2="458.678" y2="416.854" gradientUnits="userSpaceOnUse">
<stop stop-color="#F34F26"/>
<stop offset="1" stop-color="#F69E35"/>
</linearGradient>
<clipPath id="clip0_3100_41648">
<rect width="30" height="5" fill="white" transform="translate(5.99927 9.5)"/>
</clipPath>
</defs>
</svg>
