<svg width="42" height="24" viewBox="0 0 42 24" fill="none" xmlns="http://www.w3.org/2000/svg">
<rect x="-0.000732422" y="0.5" width="42" height="23" rx="5" fill="white"/>
<rect x="-0.000732422" y="0.5" width="42" height="23" rx="5" stroke="white"/>
<g clip-path="url(#clip0_3100_41653)">
<path d="M24.3389 10.3913C24.7787 10.3913 25.1186 10.5231 25.3785 10.7865C25.6385 11.0499 25.7584 11.4012 25.7584 11.8403V13.9478H25.1986V13.4649H25.1786C24.9387 13.8601 24.5988 14.0577 24.1989 14.0577C23.859 14.0577 23.5591 13.9479 23.3192 13.7284C23.0992 13.5088 22.9593 13.2015 22.9593 12.8722C22.9593 12.5209 23.0793 12.2355 23.3192 12.0159C23.5591 11.7964 23.899 11.7086 24.2989 11.7086C24.6587 11.7086 24.9387 11.7745 25.1586 11.9281V11.7745C25.1586 11.5696 25.0889 11.3647 24.9496 11.2312L24.9186 11.2037C24.7587 11.05 24.5588 10.9622 24.3389 10.9622C23.999 10.9622 23.739 11.1159 23.5591 11.4232L23.0393 11.0719C23.3591 10.6108 23.779 10.3913 24.3389 10.3913ZM21.5197 8.89847C21.8785 8.89847 22.2194 9.03556 22.492 9.29119L22.5394 9.33752C22.8193 9.60098 22.9593 9.99617 22.9593 10.4133C22.9593 10.8304 22.8193 11.2036 22.5394 11.489C22.2595 11.7744 21.9196 11.9281 21.5197 11.9281L20.56 11.9061V13.9479H19.9602V8.89844L21.5197 8.89847ZM24.4188 12.2355C24.1789 12.2355 23.979 12.3013 23.819 12.4331C23.659 12.5428 23.5791 12.6965 23.5791 12.8941C23.5791 13.0697 23.6591 13.2234 23.779 13.3112C23.919 13.421 24.0789 13.4868 24.2389 13.4868C24.4628 13.4868 24.6867 13.3912 24.8619 13.2178L24.8987 13.1795C25.0986 12.9819 25.1986 12.7404 25.1986 12.4769C25.0186 12.3233 24.7587 12.2354 24.4188 12.2354L24.4188 12.2355ZM21.5597 9.51317H20.56V11.2695H21.5597C21.7796 11.2695 21.9996 11.1817 22.1395 11.0061C22.4594 10.6768 22.4594 10.1279 22.1595 9.79859L22.1395 9.77663C21.9796 9.60101 21.7796 9.49124 21.5597 9.5132L21.5597 9.51317ZM28.9974 10.5011L27.018 15.4846H26.4182L27.158 13.7503L25.8584 10.5231H26.4982L27.4379 13.0038H27.4579L28.3776 10.5231H28.9974V10.5011Z" fill="#5F6368"/>
<path d="M18.179 11.4677C18.179 11.2702 18.159 11.0726 18.139 10.875H15.6399V11.9947H17.0594C16.9995 12.3459 16.8195 12.6752 16.5396 12.8728V13.5973H17.3993C17.8992 13.0924 18.1791 12.3459 18.1791 11.4678L18.179 11.4677Z" fill="#4285F4"/>
<path d="M15.6398 14.3022C16.3595 14.3022 16.9593 14.0387 17.3992 13.5997L16.5395 12.8752C16.2995 13.0508 15.9996 13.1606 15.6398 13.1606C14.96 13.1606 14.3601 12.6557 14.1602 11.9531H13.2805V12.6996C13.7404 13.6875 14.6401 14.3022 15.6398 14.3022Z" fill="#34A853"/>
<path d="M14.1639 11.9442C14.0439 11.5929 14.0439 11.1978 14.1639 10.8246V10.0781H13.2842C12.9043 10.8904 12.9043 11.8564 13.2842 12.6906L14.1639 11.9442Z" fill="#FBBC04"/>
<path d="M15.6435 9.6428C16.0234 9.6428 16.3832 9.79649 16.6632 10.0819L17.4229 9.24764C16.943 8.76464 16.3033 8.47925 15.6634 8.50118C14.6638 8.50118 13.7441 9.11591 13.3042 10.1038L14.1839 10.8503C14.3639 10.1477 14.9637 9.6428 15.6435 9.6428Z" fill="#EA4335"/>
</g>
<defs>
<clipPath id="clip0_3100_41653">
<rect width="16" height="7" fill="white" transform="translate(12.9993 8.5)"/>
</clipPath>
</defs>
</svg>
