<svg width="42" height="24" viewBox="0 0 42 24" fill="none" xmlns="http://www.w3.org/2000/svg">
<rect y="0.5" width="41.9992" height="23" rx="5" fill="white"/>
<rect y="0.5" width="41.9992" height="23" rx="5" stroke="#E7E7E7"/>
<path d="M23.431 16.3249H18.562V7.67676H23.431V16.3249Z" fill="#FF5F00"/>
<path d="M18.8783 12C18.8783 10.2457 19.7094 8.683 21.0036 7.67595C20.0572 6.93954 18.8627 6.5 17.5646 6.5C14.4914 6.5 12.0002 8.96239 12.0002 12C12.0002 15.0376 14.4914 17.5 17.5646 17.5C18.8627 17.5 20.0572 17.0605 21.0036 16.3241C19.7094 15.317 18.8783 13.7543 18.8783 12Z" fill="#EB001B"/>
<path d="M29.9994 12C29.9994 15.0376 27.5083 17.5 24.4351 17.5C23.137 17.5 21.9425 17.0605 20.9957 16.3241C22.2903 15.317 23.1214 13.7543 23.1214 12C23.1214 10.2457 22.2903 8.683 20.9957 7.67595C21.9425 6.93954 23.137 6.5 24.4351 6.5C27.5083 6.5 29.9994 8.96239 29.9994 12Z" fill="#F79E1B"/>
<path d="M16.1953 12.0332C16.1953 11.793 16.3546 11.5956 16.6149 11.5956C16.8636 11.5956 17.0315 11.7845 17.0315 12.0332C17.0315 12.282 16.8636 12.4708 16.6149 12.4708C16.3546 12.4708 16.1953 12.2734 16.1953 12.0332ZM17.315 12.0332V11.3498H17.0143V11.5157C16.9189 11.3927 16.7742 11.3154 16.5775 11.3154C16.1897 11.3154 15.8857 11.6159 15.8857 12.0332C15.8857 12.4508 16.1897 12.751 16.5775 12.751C16.7742 12.751 16.9189 12.6737 17.0143 12.5507V12.7166H17.315V12.0332ZM27.4767 12.0332C27.4767 11.793 27.6359 11.5956 27.8962 11.5956C28.1453 11.5956 28.3129 11.7845 28.3129 12.0332C28.3129 12.282 28.1453 12.4708 27.8962 12.4708C27.6359 12.4708 27.4767 12.2734 27.4767 12.0332ZM28.5967 12.0332V10.8009H28.2956V11.5157C28.2003 11.3927 28.0555 11.3154 27.8588 11.3154C27.471 11.3154 27.167 11.6159 27.167 12.0332C27.167 12.4508 27.471 12.751 27.8588 12.751C28.0555 12.751 28.2003 12.6737 28.2956 12.5507V12.7166H28.5967V12.0332ZM21.0476 11.5815C21.2414 11.5815 21.3659 11.7017 21.3977 11.9131H20.68C20.7122 11.7157 20.8334 11.5815 21.0476 11.5815ZM21.0536 11.3154C20.6482 11.3154 20.3648 11.6071 20.3648 12.0332C20.3648 12.4679 20.6598 12.751 21.0738 12.751C21.2821 12.751 21.4729 12.6996 21.6408 12.5595L21.4934 12.3392C21.3775 12.4305 21.2298 12.4823 21.091 12.4823C20.8973 12.4823 20.7208 12.3936 20.6774 12.1474H21.7043C21.7073 12.1104 21.7103 12.0731 21.7103 12.0332C21.7073 11.6071 21.4411 11.3154 21.0536 11.3154ZM24.6846 12.0332C24.6846 11.793 24.8438 11.5956 25.1041 11.5956C25.3529 11.5956 25.5208 11.7845 25.5208 12.0332C25.5208 12.282 25.3529 12.4708 25.1041 12.4708C24.8438 12.4708 24.6846 12.2734 24.6846 12.0332ZM25.8042 12.0332V11.3498H25.5035V11.5157C25.4078 11.3927 25.2634 11.3154 25.0667 11.3154C24.6789 11.3154 24.3749 11.6159 24.3749 12.0332C24.3749 12.4508 24.6789 12.751 25.0667 12.751C25.2634 12.751 25.4078 12.6737 25.5035 12.5507V12.7166H25.8042V12.0332ZM22.9863 12.0332C22.9863 12.4479 23.2784 12.751 23.7242 12.751C23.9325 12.751 24.0712 12.7052 24.2216 12.588L24.0772 12.3477C23.9643 12.4279 23.8457 12.4708 23.7152 12.4708C23.4751 12.4679 23.2986 12.2964 23.2986 12.0332C23.2986 11.7701 23.4751 11.5986 23.7152 11.5956C23.8457 11.5956 23.9643 11.6385 24.0772 11.7187L24.2216 11.4784C24.0712 11.3613 23.9325 11.3154 23.7242 11.3154C23.2784 11.3154 22.9863 11.6185 22.9863 12.0332ZM26.8633 11.3154C26.6898 11.3154 26.5769 11.3956 26.4987 11.5157V11.3498H26.2007V12.7166H26.5017V11.9504C26.5017 11.7242 26.6 11.5986 26.7968 11.5986C26.8577 11.5986 26.9213 11.6071 26.9849 11.6329L27.0776 11.3527C27.011 11.3269 26.9243 11.3154 26.8633 11.3154ZM18.8023 11.4585C18.6576 11.3642 18.4582 11.3154 18.2383 11.3154C17.8879 11.3154 17.6624 11.4814 17.6624 11.753C17.6624 11.9759 17.8303 12.1134 18.1396 12.1563L18.2817 12.1762C18.4466 12.1991 18.5244 12.242 18.5244 12.3193C18.5244 12.425 18.4145 12.4852 18.2092 12.4852C18.0009 12.4852 17.8505 12.4194 17.7492 12.3422L17.6074 12.5736C17.7723 12.6937 17.9807 12.751 18.2062 12.751C18.6056 12.751 18.8371 12.5651 18.8371 12.3049C18.8371 12.0646 18.6549 11.9389 18.3539 11.8961L18.2121 11.8758C18.082 11.8588 17.9777 11.8332 17.9777 11.7416C17.9777 11.6414 18.076 11.5815 18.241 11.5815C18.4175 11.5815 18.5884 11.6473 18.6721 11.6987L18.8023 11.4585ZM22.6823 11.3154C22.5088 11.3154 22.3958 11.3956 22.318 11.5157V11.3498H22.0199V12.7166H22.3207V11.9504C22.3207 11.7242 22.419 11.5986 22.6157 11.5986C22.6767 11.5986 22.7402 11.6071 22.8038 11.6329L22.8966 11.3527C22.83 11.3269 22.7432 11.3154 22.6823 11.3154ZM20.116 11.3498H19.6243V10.9351H19.3202V11.3498H19.0397V11.6215H19.3202V12.245C19.3202 12.5621 19.4448 12.751 19.8004 12.751C19.9309 12.751 20.0813 12.711 20.1767 12.6453L20.0899 12.3906C20.0001 12.442 19.9018 12.4679 19.8236 12.4679C19.6733 12.4679 19.6243 12.3762 19.6243 12.2391V11.6215H20.116V11.3498ZM15.6197 12.7166V11.8588C15.6197 11.5357 15.4114 11.3184 15.0756 11.3154C14.8991 11.3125 14.717 11.3668 14.5895 11.5586C14.4941 11.4071 14.3437 11.3154 14.1324 11.3154C13.9847 11.3154 13.8404 11.3583 13.7274 11.5184V11.3498H13.4264V12.7166H13.7301V11.9589C13.7301 11.7216 13.8632 11.5956 14.0689 11.5956C14.2686 11.5956 14.3696 11.7242 14.3696 11.956V12.7166H14.6736V11.9589C14.6736 11.7216 14.8123 11.5956 15.012 11.5956C15.2174 11.5956 15.3157 11.7242 15.3157 11.956V12.7166H15.6197Z" fill="white"/>
</svg>
