<svg width="42" height="24" viewBox="0 0 42 24" fill="none" xmlns="http://www.w3.org/2000/svg">
<rect y="0.5" width="42" height="23" rx="5" fill="white"/>
<rect y="0.5" width="42" height="23" rx="5" stroke="#E7E7E7"/>
<g clip-path="url(#clip0_3100_41626)">
<path d="M25.8745 4.82418C25.1124 3.93016 23.735 3.54688 21.9728 3.54688H16.8584C16.6841 3.54688 16.5154 3.61091 16.3828 3.72744C16.2502 3.84398 16.1624 4.00538 16.1351 4.18263L14.0055 18.0847C13.9632 18.3589 14.1694 18.6071 14.4394 18.6071H17.5968L18.3898 13.43L18.3652 13.5921C18.4217 13.2261 18.7257 12.9562 19.0858 12.9562H20.5862C23.5337 12.9562 25.8417 11.7239 26.5159 8.159C26.5359 8.05356 26.5532 7.95094 26.5682 7.85069C26.4831 7.80431 26.4831 7.80431 26.5682 7.85069C26.769 6.53308 26.5669 5.63619 25.8745 4.82418Z" fill="#27346A"/>
<path d="M19.5979 7.37604C19.6842 7.33373 19.7787 7.31181 19.8743 7.31187H23.8838C24.3586 7.31187 24.8015 7.34367 25.2062 7.41072C25.3194 7.4293 25.4321 7.45149 25.544 7.47725C25.7026 7.51328 25.8594 7.55737 26.0138 7.60937C26.2127 7.67776 26.398 7.75741 26.5683 7.85069C26.769 6.53257 26.5669 5.63619 25.8745 4.82418C25.112 3.93016 23.735 3.54688 21.9728 3.54688H16.858C16.4979 3.54688 16.1915 3.81674 16.1351 4.18263L14.0055 18.0842C13.9632 18.3588 14.1694 18.6067 14.4389 18.6067H17.5968L19.242 7.86803C19.2581 7.76248 19.299 7.66255 19.361 7.57685C19.423 7.49114 19.5043 7.42223 19.5979 7.37604Z" fill="#27346A"/>
<path d="M26.517 8.15987C25.8428 11.7242 23.5349 12.9571 20.5873 12.9571H19.0864C18.7264 12.9571 18.4223 13.227 18.3663 13.5929L17.3798 20.0301C17.3429 20.2701 17.5232 20.4875 17.759 20.4875H20.4206C20.5731 20.4874 20.7206 20.4314 20.8365 20.3294C20.9524 20.2275 21.0292 20.0863 21.053 19.9313L21.0789 19.7917L21.5806 16.5191L21.6129 16.3383C21.6367 16.1833 21.7135 16.0421 21.8294 15.9402C21.9453 15.8382 22.0927 15.7822 22.2452 15.7821H22.6435C25.2219 15.7821 27.2408 14.7039 27.8307 11.5856C28.077 10.2824 27.9496 9.19445 27.2981 8.43024C27.1006 8.19877 26.8552 8.0076 26.5693 7.85156C26.5538 7.95232 26.5371 8.05444 26.517 8.15987Z" fill="#2790C3"/>
<path d="M25.8642 7.56182C25.7591 7.53022 25.653 7.50225 25.5461 7.47794C25.4341 7.4526 25.3215 7.43056 25.2083 7.41186C24.8031 7.34436 24.3606 7.3125 23.8854 7.3125H19.8763C19.7806 7.31228 19.6861 7.33439 19.6 7.37718C19.5062 7.42323 19.4248 7.4921 19.3628 7.57783C19.3008 7.66355 19.26 7.76355 19.2439 7.86917L18.3918 13.4306L18.3672 13.5928C18.4232 13.2268 18.7273 12.9569 19.0874 12.9569H20.5883C23.5358 12.9569 25.8437 11.7246 26.5179 8.15969C26.538 8.05425 26.5548 7.95208 26.5703 7.85138C26.3996 7.75861 26.2148 7.67845 26.0158 7.61051C25.9656 7.59337 25.9151 7.57714 25.8643 7.56182" fill="#1F264F"/>
</g>
<defs>
<clipPath id="clip0_3100_41626">
<rect width="14" height="17" fill="white" transform="translate(14 3.5)"/>
</clipPath>
</defs>
</svg>
