<svg width="140" height="140" viewBox="0 0 140 140" fill="none" xmlns="http://www.w3.org/2000/svg">
<path d="M132.555 81.5949L132.514 81.6151C127.716 85.2953 125.682 91.5578 127.39 97.3531L127.411 97.3938C130.135 106.605 123.385 115.897 113.787 116.141H113.747C107.687 116.304 102.36 120.167 100.347 125.881V125.901C97.1341 134.969 86.1952 138.528 78.2855 133.058C73.374 129.704 66.8812 129.529 61.7138 133.058H61.6936C53.7841 138.507 42.8447 134.969 39.6523 125.88C38.667 123.091 36.8585 120.667 34.466 118.928C32.0735 117.189 29.2096 116.217 26.2528 116.141H26.2121C16.6149 115.896 9.86404 106.605 12.5888 97.3935L12.6091 97.3528C14.3167 91.5575 12.2834 85.295 7.48514 81.6148L7.44439 81.5946C-0.180684 75.7384 -0.180684 64.2707 7.44439 58.4147L7.48514 58.3945C12.2834 54.7143 14.3167 48.4515 12.5888 42.6565V42.6158C9.84354 33.4051 16.6147 24.1125 26.2121 23.8686H26.2528C32.2917 23.7059 37.6393 19.8425 39.6523 14.1291V14.1088C42.8444 5.04028 53.7841 1.48204 61.6936 6.95188H61.7138C66.6953 10.3882 73.2832 10.3882 78.2855 6.95188C86.2748 1.43474 97.153 5.0947 100.347 14.1088V14.1291C102.36 19.8223 107.687 23.7062 113.747 23.8686H113.787C123.385 24.1125 130.135 33.4051 127.411 42.6158L127.39 42.6565C125.682 48.4515 127.716 54.7143 132.514 58.3945L132.555 58.4147C140.18 64.2707 140.18 75.7386 132.555 81.5949Z" fill="#62A929"/>
<path d="M69.9998 107.876C90.918 107.876 107.876 90.9182 107.876 70C107.876 49.0818 90.918 32.1243 69.9998 32.1243C49.0816 32.1243 32.124 49.0818 32.124 70C32.124 90.9182 49.0816 107.876 69.9998 107.876Z" fill="#B7D79D"/>
<path d="M99.0819 45.7551C92.5306 40.3656 84.1489 37.1262 75.0117 37.1262C54.0937 37.1262 37.127 54.093 37.127 75.011C37.127 84.1482 40.3664 92.5299 45.7555 99.0811C37.4318 92.1377 32.1299 81.6933 32.1299 69.9994C32.1299 49.0812 49.0822 32.1292 70.0001 32.1292C81.694 32.1292 92.1385 37.4311 99.0819 45.7551Z" fill="#CEE4BD"/>
<path d="M60.9886 84.8275L52.6129 75.9167C50.4194 73.5826 50.5326 69.9128 52.8658 67.7193C55.1991 65.523 58.8705 65.6409 61.0621 67.9733L65.0603 72.2253L82.0553 52.8008C84.1618 50.3902 87.8259 50.1457 90.2384 52.2553C92.6491 54.3649 92.8924 58.0279 90.784 60.4385L69.5775 84.6746C67.3184 87.2539 63.3314 87.3215 60.9886 84.8275Z" fill="white"/>
</svg>
