<svg width="42" height="24" viewBox="0 0 42 24" fill="none" xmlns="http://www.w3.org/2000/svg">
<rect y="0.5" width="42" height="23" rx="5" fill="white"/>
<rect y="0.5" width="42" height="23" rx="5" stroke="#E7E7E7"/>
<g clip-path="url(#clip0_3100_41632)">
<path d="M21.3435 11.411C21.3321 12.2435 22.1453 12.708 22.7579 12.9842C23.3873 13.2676 23.5987 13.4494 23.5962 13.7028C23.5915 14.0906 23.0941 14.2618 22.6288 14.2685C21.8168 14.2801 21.3447 14.0656 20.9694 13.9034L20.6769 15.1698C21.0534 15.3304 21.7507 15.4704 22.4738 15.4766C24.171 15.4766 25.2814 14.7013 25.2874 13.4994C25.2941 11.9739 23.0071 11.8895 23.0227 11.2077C23.0281 11.0009 23.2413 10.7803 23.7085 10.7242C23.9398 10.6959 24.5781 10.6742 25.3019 10.9826L25.5859 9.75726C25.1967 9.62613 24.6965 9.50056 24.0737 9.50056C22.4762 9.50056 21.3526 10.2863 21.3435 11.411ZM28.3155 9.6061C28.0055 9.6061 27.7444 9.77338 27.6278 10.0301L25.2034 15.3866H26.8994L27.2369 14.5235H29.3094L29.5052 15.3866H31L29.6955 9.6061H28.3155ZM28.5527 11.1676L29.0422 13.3382H27.7017L28.5527 11.1676ZM19.2872 9.60618L17.9503 15.3865H19.5665L20.9027 9.60603H19.2872M16.8963 9.60603L15.2141 13.5405L14.5337 10.1952C14.4538 9.82174 14.1385 9.6061 13.7884 9.6061H11.0385L11 9.77396C11.5645 9.88731 12.2059 10.0701 12.5945 10.2657C12.8323 10.3852 12.9002 10.4897 12.9783 10.7736L14.2671 15.3866H15.975L18.5934 9.6061L16.8963 9.60603Z" fill="url(#paint0_linear_3100_41632)"/>
</g>
<defs>
<linearGradient id="paint0_linear_3100_41632" x1="930.48" y1="27.4644" x2="946.488" y2="-586.35" gradientUnits="userSpaceOnUse">
<stop stop-color="#5B5EFB"/>
<stop offset="1" stop-color="#2259E1"/>
</linearGradient>
<clipPath id="clip0_3100_41632">
<rect width="20" height="6" fill="white" transform="translate(11 9.5)"/>
</clipPath>
</defs>
</svg>
