<svg width="59" height="52" viewBox="0 0 59 52" fill="none" xmlns="http://www.w3.org/2000/svg">
<path d="M1.73172 38.7822C1.73172 38.7822 4.11965 27.7701 8.83942 27.1638C13.5592 26.5577 14.0143 26.7094 14.7728 23.0704C15.5306 19.431 24.0221 12.4554 26.7508 12.3037C29.4812 12.1528 31.1036 13.2135 32.1879 12.3037C33.2721 11.3938 32.2105 8.9689 33.4239 8.13491C34.6363 7.30013 43.7352 -0.433689 53.7429 1.23508C63.7506 2.90307 52.8538 24.9906 41.0048 35.1313C26.7508 47.3311 10.8832 52.8667 4.81772 50.441C-1.24773 48.0153 1.73172 38.7822 1.73172 38.7822Z" stroke="#599A25" stroke-width="1.33333" stroke-miterlimit="10" stroke-linecap="round"/>
<path d="M14.7727 23.0703C14.7727 23.0703 22.4554 24.7379 24.6786 28.9834C26.9035 33.2299 25.6904 32.9262 24.6786 32.6227C23.6683 32.3201 18.1707 27.1637 8.83936 27.1637" stroke="#599A25" stroke-width="1.33333" stroke-miterlimit="10" stroke-linecap="round"/>
<path d="M26.7507 12.3042C26.7507 12.3042 37.3154 14.7306 41.2581 18.167C45.1999 21.605 44.7958 11.2445 33.4239 8.13538" stroke="#599A25" stroke-width="1.33333" stroke-miterlimit="10" stroke-linecap="round"/>
<path d="M10.2236 47.9385C10.2236 47.9385 34.1819 43.2376 51.4689 17.4599" stroke="#599A25" stroke-width="1.33333" stroke-miterlimit="10" stroke-linecap="round"/>
</svg>
