<svg width="30" height="51" viewBox="0 0 30 51" fill="none" xmlns="http://www.w3.org/2000/svg">
<path d="M28.2233 44.8759C26.1924 45.9229 23.382 46.6737 21.323 47.7329C19.31 48.7683 17.1276 49.2727 15.0876 50.2524C14.6727 50.4516 14.0931 50.4294 13.6146 50.3531C10.8768 49.918 8.14224 48.932 5.41613 48.4302C3.63687 48.1022 1.87456 47.6836 0.0174139 47.2873C-0.121938 35.7242 0.630445 24.6905 0.31465 12.7888C2.54535 11.141 5.00547 9.30292 7.4905 7.49928C8.36053 6.86769 8.98894 5.86626 9.08485 4.67726C9.19294 3.33248 9.2846 1.98612 9.40011 0.408203C10.6151 1.50077 11.9429 1.60674 13.1971 1.87644C16.6502 2.61982 20.091 3.39342 23.3936 4.68097C25.0781 5.33747 25.3986 5.51444 25.0537 7.18666C24.6187 9.29603 25.2534 10.7521 26.8907 11.9707C27.3278 12.2961 27.6643 12.765 28.0156 13.1942C28.9767 14.3673 29.6502 15.5192 29.5463 17.2418C29.1235 24.2878 28.919 32.4227 28.6127 39.4762C28.5258 41.4875 28.4983 45.0937 28.2233 44.8759ZM0.983342 13.1608C2.8389 13.5905 4.40674 13.8894 5.93644 14.3217C8.9916 15.1854 12.033 16.1005 15.0643 17.0452C15.7414 17.2561 16.5187 17.4283 17.0258 18.3709C16.559 18.2686 16.2861 18.2257 16.0228 18.1489C11.4772 16.8152 6.93416 15.471 2.38428 14.1511C1.98953 14.0367 1.55082 14.0743 1.15926 14.0435C1.25357 25.2045 0.704107 35.6464 0.72742 46.7087C5.20259 47.495 9.51298 48.8016 14.0035 49.5461C14.4793 49.625 15.0124 49.3569 15.3986 49.2748C15.8718 39.039 16.3344 29.0332 16.7959 19.0507C18.5523 18.0562 26.0514 15.4556 27.2144 15.5648C24.0242 17.2656 20.6871 17.9104 17.5541 19.3617C17.1705 29.0761 16.7604 39.0115 16.3683 48.9373C20.5011 47.2402 23.9638 46.2806 27.5901 44.3938C28.0114 37.0913 28.352 28.3656 28.7775 21C28.3022 21.1415 27.9631 21.2125 27.6473 21.3402C25.4966 22.2108 23.3454 23.0797 21.2053 23.9757C19.2814 24.7816 19.3439 24.7954 19.3858 26.8825C19.4473 29.9599 19.416 33.0389 19.4319 36.1174C19.4356 36.838 19.2825 37.5766 19.5511 38.418C20.8811 37.8733 22.087 37.3763 23.2962 36.8857C24.5 36.3972 25.6265 35.6983 26.9749 35.5208C26.772 35.9002 26.5293 36.234 26.2029 36.3791C23.8324 37.4341 21.4729 38.5309 18.8347 39.1937C18.7272 38.6999 18.5931 38.3703 18.5937 38.0408C18.5963 36.3251 18.6482 34.6094 18.6546 32.8937C18.6636 30.4744 18.698 28.0535 18.6138 25.6373C18.5847 24.806 18.7547 24.3196 19.5442 23.9937C21.5948 23.147 23.6151 22.2277 25.6614 21.3709C26.6745 20.9471 27.7189 20.5968 28.9163 20.1512C28.9163 19.0586 28.8183 17.9931 28.9513 16.9572C29.0382 16.279 28.9073 15.7878 28.5015 15.2977C27.5027 14.0934 26.5214 12.8747 25.5136 11.6777C25.2047 11.3105 24.8317 10.9974 24.4385 10.6106C24.0517 11.1341 23.7773 11.558 23.4519 11.9384C21.944 13.7007 20.4301 15.4577 18.8946 17.1962C18.7076 17.4081 18.3775 17.4929 18.1136 17.637C18.0347 17.5459 17.9557 17.4548 17.8768 17.3636C19.7806 15.0333 22.0229 12.9653 23.8175 10.3319C18.8904 9.13124 14.1996 7.98887 9.60993 6.87034C6.74288 8.96222 3.95902 10.9916 0.983342 13.1608ZM24.3675 5.59445C19.532 4.32014 14.8529 3.08716 10.1122 1.83829C9.95487 3.38706 9.81976 4.72018 9.67723 6.12483C14.5646 7.29529 19.3312 8.4366 24.1847 9.59858C24.2462 8.25592 24.3008 7.0595 24.3675 5.59445Z" fill="#599A25"/>
<path d="M14.3829 39.9518C10.3173 39.2025 6.45251 38.119 2.68311 36.7112C2.68311 31.3601 2.68311 26.1612 2.68311 20.9521C6.51768 21.7538 10.2399 22.5322 14.1736 23.354C14.2393 25.6933 14.3628 28.0856 14.359 30.4779C14.3548 33.1479 14.226 35.8173 14.1757 38.4872C14.1683 38.8984 14.288 39.3112 14.3829 39.9518ZM3.15257 21.5334C3.2241 22.9836 3.31894 24.2325 3.34119 25.483C3.39736 28.6033 3.4159 31.7236 3.45934 34.8439C3.48001 36.3212 3.48373 36.3445 4.84016 36.7149C7.50693 37.4429 10.1806 38.1439 12.8548 38.8454C12.9835 38.8793 13.1382 38.8152 13.3719 38.785C13.4684 33.8128 13.5648 28.8544 13.6623 23.8457C10.0693 23.2925 6.59929 23.0117 3.15257 21.5334Z" fill="#599A25"/>
<path d="M12.4791 12.4902C12.0335 11.6233 11.7675 10.7152 12.1437 9.65332C12.3684 10.561 12.5936 11.4686 12.8183 12.3763C12.7054 12.4139 12.592 12.452 12.4791 12.4902Z" fill="#599A25"/>
<path d="M13.3611 12.9766C12.9452 12.2465 12.9696 11.4586 13.3807 10.6113C13.5074 11.386 13.634 12.1606 13.7606 12.9348C13.6271 12.9491 13.4941 12.9628 13.3611 12.9766Z" fill="#599A25"/>
<path d="M18.6499 44.5702C17.9785 43.8634 17.9807 43.8231 18.8263 42.579C19.202 43.3409 18.6128 43.9402 18.6483 44.5744L18.6499 44.5702Z" fill="#599A25"/>
<path d="M18.6484 44.5742C18.9854 43.9712 19.3224 43.3688 19.7511 42.6016C19.8655 44.1816 19.7203 44.4078 18.65 44.57L18.6484 44.5742Z" fill="#599A25"/>
<path d="M3.33594 45.1207C3.38998 44.7149 3.44403 44.3095 3.49807 43.9042C3.61676 43.9185 3.73597 43.9328 3.85465 43.9466C3.79478 44.3567 3.73439 44.7668 3.67399 45.1769C3.56113 45.1583 3.44827 45.1398 3.33594 45.1207Z" fill="#599A25"/>
<path d="M4.89478 45.0492C4.9769 44.6306 5.05903 44.2125 5.14116 43.7939C5.25773 43.8178 5.37483 43.8416 5.4914 43.8655C5.40397 44.283 5.31707 44.7005 5.22964 45.1181C5.11784 45.0947 5.00658 45.072 4.89478 45.0492Z" fill="#599A25"/>
<path d="M7.48948 25.3828C7.75229 25.7288 8.0257 25.9725 8.15445 26.2772C8.92433 28.1015 9.52148 29.991 9.35987 31.988C9.2947 32.7966 9.00434 33.6963 8.52588 34.3379C7.60021 35.581 6.0578 35.2842 5.65988 33.7832C5.42409 32.8935 5.53165 31.8921 5.60424 30.95C5.64557 30.4138 5.92004 29.8935 6.10072 29.37C6.53997 28.0973 6.98558 26.8272 7.48948 25.3828ZM7.74221 27.1038C7.37025 28.1434 6.95221 29.1692 6.64277 30.2273C6.41917 30.9913 6.24325 31.7951 6.22576 32.5852C6.21093 33.2618 6.29677 34.0571 7.13819 34.312C7.75282 34.4985 8.4803 33.7869 8.75848 32.8114C8.77226 32.7632 8.78656 32.7139 8.79292 32.6646C9.04248 30.7312 8.74047 28.8883 7.74221 27.1038Z" fill="#599A25"/>
<path d="M4.82452 16.8747C4.46051 17.4347 4.09703 17.9943 3.73302 18.5543C3.59314 18.7694 3.937 18.9687 4.07636 18.7546C4.44037 18.1951 4.80385 17.635 5.16786 17.075C5.30774 16.8604 4.96388 16.6611 4.82452 16.8747Z" fill="#599A25"/>
<path d="M5.7007 17.5676C5.3351 17.9931 5.014 18.4498 4.74112 18.94C4.61661 19.1636 4.95996 19.3644 5.08448 19.1408C5.34093 18.6798 5.63818 18.249 5.98206 17.849C6.14737 17.6556 5.8676 17.3732 5.7007 17.5676Z" fill="#599A25"/>
<path d="M10.3467 1.64291C10.3594 3.18162 10.4177 4.71767 10.5215 6.25267C10.5385 6.50647 10.9364 6.50859 10.9189 6.25267C10.8156 4.71767 10.7573 3.18162 10.7441 1.64291C10.742 1.38752 10.3446 1.38699 10.3467 1.64291Z" fill="#599A25"/>
<path d="M11.4745 2.26636C11.4745 3.71817 11.4745 5.16945 11.4745 6.62126C11.4745 6.87665 11.8719 6.87718 11.8719 6.62126C11.8719 5.16945 11.8719 3.71817 11.8719 2.26636C11.8719 2.01044 11.4745 2.00991 11.4745 2.26636Z" fill="#599A25"/>
<path d="M12.9692 2.63888C12.9671 4.45735 12.965 6.27529 12.9634 8.09376C12.9634 8.30994 13.3184 8.37405 13.3539 8.14674C13.392 7.90354 13.4297 7.66086 13.4678 7.41766C13.507 7.16757 13.1239 7.05948 13.0847 7.31222C13.0466 7.55542 13.009 7.7981 12.9708 8.0413C13.1011 8.05879 13.231 8.07627 13.3613 8.09429C13.3634 6.27582 13.3655 4.45788 13.3671 2.63941C13.3666 2.38349 12.9692 2.38296 12.9692 2.63888Z" fill="#599A25"/>
<path d="M13.959 3.26101C13.9632 4.81826 13.9675 6.37498 13.9717 7.93223C13.9722 8.16378 14.2896 8.19239 14.3622 7.98522C14.4422 7.75579 14.5222 7.52636 14.6022 7.29693C14.6865 7.05479 14.3029 6.95094 14.2191 7.19149C14.1391 7.42092 14.0591 7.65035 13.9791 7.87977C14.1095 7.89726 14.2393 7.91474 14.3696 7.93276C14.3654 6.37551 14.3612 4.81879 14.3569 3.26154C14.3559 3.00562 13.9585 3.00509 13.959 3.26101Z" fill="#599A25"/>
<path d="M15.2179 3.26244C15.1225 4.63053 15.0271 5.99808 14.9317 7.36565C14.9137 7.62104 15.3117 7.61998 15.3291 7.36565C15.4245 5.99808 15.5199 4.63 15.6153 3.26244C15.6333 3.00704 15.2354 3.0081 15.2179 3.26244Z" fill="#599A25"/>
<path d="M16.203 3.75952C16.203 5.07516 16.203 6.39027 16.203 7.7059C16.203 7.96182 16.6004 7.96182 16.6004 7.7059C16.6004 7.51038 16.6004 7.31487 16.6004 7.11882C16.6004 6.8629 16.203 6.8629 16.203 7.11882C16.203 7.31434 16.203 7.50985 16.203 7.7059C16.203 7.96182 16.6004 7.96182 16.6004 7.7059C16.6004 6.39027 16.6004 5.07516 16.6004 3.75952C16.6004 3.5036 16.203 3.50307 16.203 3.75952Z" fill="#599A25"/>
<path d="M17.1086 3.63142C17.2198 5.12456 17.2458 6.61664 17.1865 8.11295C17.1764 8.36888 17.5738 8.36835 17.5839 8.11295C17.6432 6.61664 17.6172 5.12456 17.506 3.63142C17.4869 3.37815 17.0895 3.37603 17.1086 3.63142Z" fill="#599A25"/>
<path d="M18.3218 4.25659C18.334 5.75609 18.245 7.24657 18.0542 8.73388C18.0219 8.98663 18.4193 8.98451 18.4516 8.73388C18.6429 7.24657 18.7319 5.75609 18.7192 4.25659C18.7171 4.00067 18.3197 4.00014 18.3218 4.25659Z" fill="#599A25"/>
<path d="M19.3458 4.50717C19.2913 5.86573 19.2372 7.22428 19.1826 8.58283C19.3151 8.58283 19.4476 8.58283 19.58 8.58283C19.5821 8.3852 19.5848 8.18756 19.5869 7.98992C19.5901 7.734 19.1927 7.734 19.1895 7.98992C19.1874 8.18756 19.1848 8.3852 19.1826 8.58283C19.1795 8.83928 19.57 8.8377 19.58 8.58283C19.6346 7.22428 19.6887 5.86573 19.7432 4.50717C19.7533 4.25125 19.3559 4.25178 19.3458 4.50717Z" fill="#599A25"/>
<path d="M20.4566 4.63216C20.3273 6.29061 20.2897 7.948 20.3427 9.61069C20.3506 9.86555 20.7485 9.86714 20.7401 9.61069C20.6865 7.94853 20.7247 6.29061 20.854 4.63216C20.8741 4.37729 20.4762 4.37835 20.4566 4.63216Z" fill="#599A25"/>
<path d="M21.4147 5.50123C21.4666 7.06113 21.5191 8.6205 21.571 10.1804C21.5784 10.4072 21.891 10.4469 21.9615 10.2334C21.997 10.1253 22.033 10.0167 22.0685 9.90805C22.1485 9.66432 21.7649 9.55993 21.6854 9.80261C21.6499 9.9107 21.6139 10.0193 21.5784 10.1279C21.7082 10.1454 21.8386 10.1629 21.9689 10.1809C21.917 8.62103 21.8651 7.06166 21.8126 5.50176C21.8036 5.24637 21.4062 5.24531 21.4147 5.50123Z" fill="#599A25"/>
<path d="M22.7869 5.25229C22.8452 6.5001 22.8182 7.74315 22.7064 8.98778C22.6836 9.24212 23.081 9.24106 23.1038 8.98778C23.2156 7.74368 23.2426 6.5001 23.1843 5.25229C23.1721 4.99743 22.7747 4.99584 22.7869 5.25229Z" fill="#599A25"/>
<path d="M22.0764 13.769C24.012 14.3895 25.9396 14.9665 27.9759 15.1159C28.2064 15.1328 28.2355 14.79 28.0289 14.7254C26.0128 14.0959 23.976 13.5555 21.9132 13.103C21.6642 13.0484 21.5577 13.4315 21.8078 13.486C23.8705 13.9385 25.9078 14.479 27.9234 15.1085C27.9409 14.9781 27.9584 14.8483 27.9764 14.718C25.9757 14.5712 24.0825 13.9947 22.1824 13.3854C21.9382 13.3075 21.8338 13.6911 22.0764 13.769Z" fill="#599A25"/>
<path d="M0.300118 40.8945C5.44344 41.8069 10.5094 43.0251 15.5054 44.55C15.7507 44.6247 15.8551 44.2411 15.6109 44.1669C10.6143 42.642 5.54888 41.4243 0.405562 40.5114C0.15547 40.4669 0.0479058 40.85 0.300118 40.8945Z" fill="#599A25"/>
<path d="M16.4126 44.7152C20.2467 43.2464 24.2842 42.3335 27.8459 40.2278C28.0658 40.098 27.866 39.7541 27.6451 39.8845C24.1109 41.9737 20.1084 42.8755 16.3066 44.3315C16.0703 44.4227 16.1731 44.8068 16.4126 44.7152Z" fill="#599A25"/>
<path d="M25.9157 36.1943C26.8684 35.9124 27.7453 35.4705 28.5348 34.8659C28.7351 34.7123 28.5374 34.3673 28.334 34.5226C27.571 35.107 26.7322 35.5378 25.8097 35.8107C25.5654 35.8838 25.6693 36.2674 25.9157 36.1943Z" fill="#599A25"/>
<path d="M22.3476 12.2633C22.4223 12.5971 22.4965 12.9309 22.5712 13.2642C22.6269 13.5138 23.01 13.4083 22.9543 13.1588C22.8796 12.825 22.8054 12.4917 22.7307 12.1579C22.6751 11.9083 22.2915 12.0143 22.3476 12.2633Z" fill="#599A25"/>
<path d="M23.1786 11.6506C23.284 12.2758 23.3889 12.9011 23.4944 13.5268C23.5367 13.7785 23.9198 13.6715 23.8774 13.4214C23.772 12.7962 23.6671 12.1704 23.5617 11.5452C23.5193 11.2935 23.1362 11.4 23.1786 11.6506Z" fill="#599A25"/>
<path d="M24.3108 11.5242C24.4258 12.3725 24.6648 13.1795 25.0198 13.9584C25.1257 14.191 25.468 13.9891 25.3631 13.7576C25.023 13.0105 24.8041 12.2311 24.6945 11.4182C24.66 11.166 24.2769 11.2736 24.3108 11.5242Z" fill="#599A25"/>
<path d="M25.2105 11.5188C25.3652 12.4143 25.5851 13.2912 25.8712 14.1538C25.9512 14.3954 26.3354 14.2921 26.2543 14.0483C25.9682 13.1857 25.7488 12.3088 25.5936 11.4134C25.5507 11.1617 25.1676 11.2687 25.2105 11.5188Z" fill="#599A25"/>
<path d="M26.2819 12.897C26.4483 13.3532 26.6147 13.8088 26.781 14.2651C26.8679 14.5035 27.2521 14.4007 27.1641 14.1596C26.9977 13.7034 26.8314 13.2477 26.665 12.7915C26.5781 12.5531 26.194 12.6559 26.2819 12.897Z" fill="#599A25"/>
<path d="M1.1762 12.3777C6.90979 13.6313 12.5761 15.1345 18.1767 16.8883C18.4215 16.9652 18.5258 16.5815 18.2821 16.5052C12.6815 14.7514 7.0147 13.2482 1.28165 11.9946C1.03261 11.94 0.925579 12.3231 1.1762 12.3777Z" fill="#599A25"/>
<path d="M2.778 23.3844C6.22896 24.5829 9.7472 25.4434 13.3624 25.9727C13.6125 26.0093 13.7206 25.6262 13.4679 25.5896C9.85318 25.0603 6.33494 24.1998 2.88345 23.0013C2.64183 22.917 2.53745 23.3006 2.778 23.3844Z" fill="#599A25"/>
</svg>
