<svg width="50" height="52" viewBox="0 0 50 52" fill="none" xmlns="http://www.w3.org/2000/svg">
<path d="M32.5474 1.00003C32.5474 1.00003 48.1835 0.860601 48.9814 18.4111C49.7796 35.9616 24.7298 33.7282 20.2621 37.7167C18.5869 39.2125 16.9564 39.4882 15.5642 39.1532C13.2449 38.5955 11.5869 36.3418 11.4875 35.2137C11.3274 33.4088 10.8491 30.0504 15.7949 23.114C20.741 16.1769 19.9432 2.41628 32.5474 1.00003Z" stroke="#599A25" stroke-width="1.33333" stroke-miterlimit="10" stroke-linecap="round"/>
<path d="M15.5644 39.1532C15.5644 39.1532 11.8063 42.6627 10.1043 45.8536C10.1043 45.8536 12.1252 49.8959 8.72124 50.8533C5.31794 51.8107 5.31794 47.7684 5.31794 47.7684C5.31794 47.7684 1.19 49.1395 0.850428 46.3856C0.372033 42.503 4.83924 43.1948 4.83924 43.1948L11.3961 35.9616C11.3961 35.9616 11.6288 37.6637 15.5644 39.1532Z" stroke="#599A25" stroke-width="1.33333" stroke-miterlimit="10" stroke-linecap="round"/>
<path d="M44.4077 12.0823C44.4077 12.0823 46.8543 19.4214 43.5563 23.9951" stroke="#599A25" stroke-width="1.33333" stroke-miterlimit="10" stroke-linecap="round"/>
<path d="M43.5562 19.5279C43.5562 19.5279 42.493 25.1649 38.9825 28.0371" stroke="#599A25" stroke-width="1.33333" stroke-miterlimit="10" stroke-linecap="round"/>
<path d="M34.4089 30.2308C34.4089 30.2308 30.8991 31.8667 24.8364 32.9309C18.7731 33.9942 18.4546 36.4902 18.4546 36.4902" stroke="#599A25" stroke-width="1.33333" stroke-miterlimit="10" stroke-linecap="round"/>
</svg>
