<svg width="49" height="52" viewBox="0 0 49 52" fill="none" xmlns="http://www.w3.org/2000/svg">
<path d="M23.2757 34.4422C27.4817 35.7531 33.7644 38.4318 36.8089 43.2984C41.6341 50.9973 41.6341 50.9973 41.6341 50.9973C41.6341 50.9973 44.3903 51.374 48 43.2404C48 43.2404 40.2756 34.5275 39.4548 21.7915M23.2757 34.4422C23.7774 32.9408 23.9114 31.3427 23.6687 29.7784M23.2757 34.4422C23.2757 34.4422 21.4331 40.0504 15.4853 38.9267C15.4853 38.9267 9.89206 43.6996 5.48577 39.5465C1.07947 35.3934 2.71249 29.9933 5.62037 28.5546C5.62037 28.5546 -0.480648 25.4939 1.33884 21.161C3.15968 16.8273 6.76114 18.1568 6.76114 18.1568C6.76114 18.1568 4.93808 16.0375 7.11446 13.4947C9.29108 10.9504 11.2199 12.6567 11.2199 12.6567C11.2199 12.6567 6.90222 8.45264 14.2263 3.41571C21.5498 -1.62228 25.091 4.08501 25.091 4.08501C25.091 4.08501 26.7942 0.52319 29.339 1.05392C31.8819 1.58433 32.4468 3.37161 32.4468 3.37161C32.4468 3.37161 35.0725 1.66304 38.6515 2.49978C46.0049 4.22136 51.0961 17.8198 39.4548 21.7915M23.6687 29.7784C29.0407 31.5181 34.0468 34.9175 34.4695 35.2093C29.8452 29.9565 27.4362 25.5536 26.2171 22.1304M23.6687 29.7784C29.3701 28.1344 26.2171 22.1304 26.2171 22.1304M26.2171 22.1304C26.4719 21.7147 26.6994 21.3036 26.8869 20.8717M26.2171 22.1304L26.8869 20.8717M26.8869 20.8717C28.164 21.7829 29.5946 22.4241 31.085 22.7787M26.8869 20.8717C26.8869 20.8717 27.8139 25.7615 39.4548 21.7915M31.085 22.7787C32.1086 23.0331 33.1613 23.1454 34.2177 23.1147M31.085 22.7787C31.7496 24.3664 32.8776 26.5338 34.742 29.094C34.742 29.094 34.4388 26.3251 34.2177 23.1147M34.2177 23.1147C36.019 23.0777 37.8008 22.6436 39.4548 21.7915M9.46073 33.0995C9.83307 33.5471 9.77926 34.2118 9.33038 34.5828C8.88803 34.9642 8.22109 34.9101 7.83856 34.4698C7.46675 34.0219 7.51918 33.358 7.96279 32.9759C8.41178 32.6048 9.07751 32.6568 9.46073 33.0995ZM15.2403 30.8838C15.5888 31.2902 15.5381 31.9108 15.1311 32.2578C14.7077 32.5987 14.1026 32.5541 13.748 32.1371C13.4007 31.7329 13.451 31.1125 13.8572 30.766C14.2751 30.4127 14.8869 30.469 15.2403 30.8838ZM14.3409 22.6912C14.6882 23.0955 14.6375 23.7161 14.2305 24.0631C13.8079 24.4063 13.2015 24.3596 12.8486 23.9445C12.5001 23.5381 12.5502 22.9178 12.9565 22.5713C13.3747 22.2193 13.9859 22.2745 14.3409 22.6912ZM25.3951 12.5864C25.7429 12.9917 25.6928 13.6121 25.2852 13.9593C24.8629 14.301 24.2571 14.2554 23.9027 13.8397C23.5549 13.4344 23.6055 12.8138 24.0118 12.4672C24.4297 12.1141 25.0415 12.1703 25.3951 12.5864ZM13.5018 14.4596C13.8497 14.8649 13.7995 15.4853 13.392 15.8325C12.9696 16.1743 12.3639 16.1286 12.0095 15.7129C11.6616 15.3076 11.7123 14.687 12.1186 14.3404C12.5364 13.9872 13.1482 14.0435 13.5018 14.4596ZM7.66894 18.5652C8.01681 18.9705 7.96668 19.5908 7.55911 19.9381C7.13674 20.2798 6.53102 20.2341 6.17661 19.8185C5.82874 19.4131 5.87941 18.7925 6.2857 18.446C6.70354 18.0928 7.31538 18.149 7.66894 18.5652ZM12.7038 12.3222C13.0517 12.7275 13.0011 13.3481 12.5939 13.6951C12.1712 14.037 11.565 13.9917 11.2115 13.5755C10.8636 13.1701 10.9138 12.5498 11.3201 12.2033C11.7375 11.8504 12.3499 11.9063 12.7038 12.3222ZM18.4445 12.0991C18.7924 12.5044 18.7417 13.1237 18.3347 13.472C17.912 13.8139 17.3066 13.7681 16.9522 13.3524C16.6037 12.9461 16.655 12.3265 17.0607 11.9789C17.4791 11.6267 18.09 11.6821 18.4445 12.0991ZM7.80691 28.3002C8.15478 28.7056 8.10413 29.3262 7.69783 29.6727C7.27557 30.0144 6.66932 29.969 6.31533 29.5531C5.968 29.1475 6.01812 28.5272 6.42441 28.1806C6.84183 27.8277 7.4542 27.8836 7.80691 28.3002ZM25.328 17.7753C25.6753 18.1796 25.6252 18.8 25.2189 19.1465C24.7963 19.4898 24.1904 19.4428 23.837 19.028C23.4881 18.6218 23.5387 18.0012 23.9449 17.6547C24.3629 17.3014 24.9743 17.3579 25.328 17.7753ZM32.4462 4.30288C32.7941 4.70821 32.744 5.32853 32.3377 5.67507C31.9145 6.01726 31.3092 5.97136 30.9552 5.55546C30.6069 5.15037 30.6575 4.52975 31.0637 4.18327C31.4817 3.83003 32.0931 3.88649 32.4462 4.30288Z" stroke="#599A25" stroke-miterlimit="10"/>
</svg>
