<svg width="48" height="54" viewBox="0 0 48 54" fill="none" xmlns="http://www.w3.org/2000/svg">
<path d="M21.1047 12.9413C20.6169 10.4346 20.384 7.39012 21.4107 5.25252C21.4107 5.25252 21.4778 7.27916 22.4179 8.39935C23.8701 10.1298 26.4343 11.4016 26.5148 12.9243C26.5148 12.9243 28.0536 8.18743 32.9065 6.56085C35.3171 5.755 37.346 5.05486 38.541 3.00055C38.541 3.00055 39.6823 15.6458 33.3869 18.1454C33.3869 18.1454 35.1439 14.4098 40.5004 20.3126C44.6095 24.8407 46.5544 19.7148 46.5544 19.7148C46.5544 19.7148 47.314 23.9849 41.4344 25.5918" stroke="#599A25" stroke-width="1.33333" stroke-miterlimit="10" stroke-linecap="round"/>
<path d="M14.4499 52.6884C-0.338093 50.5374 0.893432 46.197 1.47383 40.0294C1.59088 38.8834 1.67745 37.664 1.62989 36.3814C1.62989 36.3814 4.03197 14.2016 14.8218 13.5449C23.2875 13.0267 34.8223 19.4414 39.6423 25.4575C40.9567 27.095 41.7859 28.7058 41.9041 30.1372C42.8796 41.6668 32.0044 55.2357 14.4499 52.6884Z" stroke="#599A25" stroke-width="1.33333" stroke-miterlimit="10" stroke-linecap="round"/>
<path d="M1.47363 40.0293C1.59069 38.8833 1.67725 37.6639 1.62969 36.3813C1.62969 36.3813 4.03177 14.2015 14.8216 13.5448C23.2873 13.0265 34.8221 19.4413 39.6421 25.4574" stroke="#599A25" stroke-width="1.33333" stroke-miterlimit="10" stroke-linecap="round"/>
<path d="M14.2059 19.3554C13.9499 19.8869 13.4816 20.1909 13.1597 20.0356C12.8378 19.8799 12.7842 19.3235 13.0403 18.7934C13.2975 18.2628 13.7657 17.958 14.0876 18.1142C14.4083 18.269 14.462 18.8248 14.2059 19.3554Z" stroke="#599A25" stroke-width="1.33333" stroke-miterlimit="10" stroke-linecap="round"/>
<path d="M15.5036 24.2038C15.2475 24.7358 14.7781 25.0392 14.4562 24.8844C14.1355 24.7296 14.0831 24.1733 14.3392 23.6417C14.5952 23.1102 15.0634 22.8068 15.3841 22.9616C15.7072 23.1179 15.7597 23.6736 15.5036 24.2038Z" stroke="#599A25" stroke-width="1.33333" stroke-miterlimit="10" stroke-linecap="round"/>
<path d="M22.6938 23.8662C22.4378 24.3954 21.9708 24.7002 21.6489 24.544C21.3258 24.3892 21.2733 23.8333 21.5294 23.3028C21.7855 22.7726 22.2537 22.4678 22.5768 22.6236C22.8975 22.7783 22.9499 23.3347 22.6938 23.8662Z" stroke="#599A25" stroke-width="1.33333" stroke-miterlimit="10" stroke-linecap="round"/>
<path d="M20.8682 19.0224C20.5792 19.5358 20.0927 19.8088 19.7818 19.6334C19.4708 19.4577 19.4525 18.8995 19.7415 18.3861C20.0317 17.8741 20.5182 17.5997 20.8292 17.774C21.1413 17.9506 21.1584 18.509 20.8682 19.0224Z" stroke="#599A25" stroke-width="1.33333" stroke-miterlimit="10" stroke-linecap="round"/>
<path d="M9.87118 27.8956C9.58098 28.409 9.09446 28.6834 8.78354 28.5077C8.47261 28.3323 8.45555 27.7736 8.74452 27.2602C9.0335 26.7472 9.52122 26.4728 9.83215 26.6495C10.1419 26.8239 10.1602 27.3821 9.87118 27.8956Z" stroke="#599A25" stroke-width="1.33333" stroke-miterlimit="10" stroke-linecap="round"/>
<path d="M10.3227 48.601C9.82765 48.9177 9.26921 48.9311 9.07533 48.6315C8.88268 48.33 9.12899 47.829 9.62525 47.5107C10.1215 47.1926 10.68 47.1802 10.8726 47.4802C11.0653 47.7813 10.819 48.2823 10.3227 48.601Z" stroke="#599A25" stroke-width="1.33333" stroke-miterlimit="10" stroke-linecap="round"/>
<path d="M25.5738 42.7618C25.2214 43.2323 24.7032 43.4424 24.4167 43.229C24.1301 43.0166 24.1838 42.4607 24.5362 41.9878C24.8885 41.5143 25.4068 41.3048 25.6921 41.5196C25.9798 41.7329 25.9262 42.2888 25.5738 42.7618Z" stroke="#599A25" stroke-width="1.33333" stroke-miterlimit="10" stroke-linecap="round"/>
<path d="M17.5385 28.0033C17.1861 28.4753 16.6691 28.6863 16.3826 28.4716C16.096 28.2582 16.1497 27.7023 16.5008 27.2288C16.8532 26.7583 17.3714 26.5472 17.658 26.7621C17.9445 26.974 17.8909 27.5304 17.5385 28.0033Z" stroke="#599A25" stroke-width="1.33333" stroke-miterlimit="10" stroke-linecap="round"/>
<path d="M34.6138 41.1358C34.2614 41.6078 33.7432 41.8174 33.4567 41.604C33.1702 41.3906 33.2238 40.8347 33.5762 40.3627C33.9286 39.8897 34.4456 39.6801 34.7321 39.8935C35.0187 40.1079 34.9662 40.6638 34.6138 41.1358Z" stroke="#599A25" stroke-width="1.33333" stroke-miterlimit="10" stroke-linecap="round"/>
<path d="M33.559 36.7931C33.2066 37.2661 32.6908 37.4756 32.4031 37.2622C32.1177 37.048 32.1714 36.4916 32.5226 36.0196C32.875 35.5481 33.3932 35.338 33.6785 35.5514C33.965 35.7647 33.9126 36.3211 33.559 36.7931Z" stroke="#599A25" stroke-width="1.33333" stroke-miterlimit="10" stroke-linecap="round"/>
<path d="M29.5452 43.3067C29.1928 43.7787 28.6759 43.9883 28.3893 43.7749C28.1028 43.5615 28.1564 43.0056 28.5088 42.5322C28.8612 42.0592 29.3794 41.8506 29.6647 42.0639C29.9513 42.2773 29.8988 42.8337 29.5452 43.3067Z" stroke="#599A25" stroke-width="1.33333" stroke-miterlimit="10" stroke-linecap="round"/>
<path d="M25.537 47.7326C25.1127 48.1409 24.5664 48.2618 24.3189 48.0047C24.0714 47.7484 24.2152 47.2074 24.6408 46.7996C25.0663 46.3914 25.6114 46.2694 25.8577 46.5282C26.1052 46.7839 25.9613 47.324 25.537 47.7326Z" stroke="#599A25" stroke-width="1.33333" stroke-miterlimit="10" stroke-linecap="round"/>
<path d="M14.3155 44.4817C13.8912 44.8899 13.3462 45.0108 13.0987 44.7537C12.8511 44.4974 12.995 43.9564 13.4206 43.5491C13.8461 43.1404 14.3899 43.0185 14.6374 43.2771C14.885 43.5329 14.7411 44.0731 14.3155 44.4817Z" stroke="#599A25" stroke-width="1.33333" stroke-miterlimit="10" stroke-linecap="round"/>
<path d="M15.5437 50.1126C15.0486 50.4308 14.4902 50.4442 14.2975 50.1431C14.1037 49.843 14.3512 49.341 14.8462 49.0238C15.3425 48.7066 15.901 48.6924 16.0936 48.9933C16.2863 49.2934 16.04 49.7954 15.5437 50.1126Z" stroke="#599A25" stroke-width="1.33333" stroke-miterlimit="10" stroke-linecap="round"/>
<path d="M38.664 31.62C38.4702 32.1772 38.0397 32.533 37.702 32.4149C37.3655 32.2991 37.2484 31.7514 37.4423 31.1947C37.6349 30.6383 38.0666 30.2825 38.4031 30.4007C38.7409 30.5178 38.8567 31.0641 38.664 31.62Z" stroke="#599A25" stroke-width="1.33333" stroke-miterlimit="10" stroke-linecap="round"/>
<path d="M19.6126 46.527C19.1298 46.8623 18.5713 46.8966 18.3677 46.6037C18.1641 46.3098 18.3909 45.8001 18.8749 45.4639C19.359 45.1271 19.9162 45.0928 20.1199 45.3857C20.3235 45.6782 20.0967 46.1892 19.6126 46.527Z" stroke="#599A25" stroke-width="1.33333" stroke-miterlimit="10" stroke-linecap="round"/>
</svg>
