<svg width="17" height="16" viewBox="0 0 17 16" fill="none" xmlns="http://www.w3.org/2000/svg">
<path d="M8.33341 1.3335C4.66675 1.3335 1.66675 4.3335 1.66675 8.00016C1.66675 11.6668 4.66675 14.6668 8.33341 14.6668C9.53341 14.6668 10.6667 14.3335 11.6667 13.8002C12.0001 13.6002 12.0667 13.2002 11.9334 12.8668C11.7334 12.5335 11.3334 12.4668 11.0001 12.6002C8.46675 14.0668 5.20008 13.2002 3.73341 10.6668C2.26675 8.1335 3.13341 4.86683 5.66675 3.40016C8.20008 1.9335 11.4667 2.80016 12.9334 5.3335C13.4001 6.1335 13.6667 7.06683 13.6667 8.00016V8.5335C13.6667 9.20016 13.1334 9.7335 12.4667 9.7335C11.8001 9.7335 11.2667 9.20016 11.2667 8.5335V5.66683C11.2667 5.26683 11.0001 5.00016 10.6001 5.00016C10.2667 5.00016 10.0001 5.20016 9.93341 5.5335C8.60008 4.60016 6.66675 4.9335 5.73341 6.26683C4.80008 7.60016 5.13341 9.5335 6.46675 10.4668C7.73341 11.3335 9.40008 11.1335 10.4001 10.0002C11.2667 11.0668 12.8001 11.2668 13.8667 10.4668C14.4667 10.0002 14.8667 9.26683 14.8667 8.46683V8.00016C15.0001 4.3335 12.0001 1.3335 8.33341 1.3335ZM8.33341 9.66683C7.40008 9.66683 6.66675 8.9335 6.66675 8.00016C6.66675 7.06683 7.40008 6.3335 8.33341 6.3335C9.26675 6.3335 10.0001 7.06683 10.0001 8.00016C10.0001 8.9335 9.26675 9.66683 8.33341 9.66683Z" fill="currentColor"/>
</svg>
