<svg width="16" height="16" viewBox="0 0 16 16" fill="none" xmlns="http://www.w3.org/2000/svg">
<path d="M2.23177 1.33333H8.16512C8.65845 1.33333 9.06512 1.74 9.06512 2.23333V3.21999C9.06512 3.57999 8.83845 4.02666 8.61845 4.25333L6.68512 5.95999C6.41847 6.18666 6.23844 6.63332 6.23844 6.99333V8.92666C6.23844 9.19333 6.05845 9.55333 5.83179 9.69333L5.20512 10.1C4.61845 10.46 3.81177 10.0533 3.81177 9.33333V6.95333C3.81177 6.63999 3.63178 6.23333 3.45178 6.00667L1.74511 4.20666C1.51845 3.97999 1.33846 3.57999 1.33846 3.30665V2.27333C1.33179 1.73999 1.73843 1.33333 2.23177 1.33333Z" stroke="currentColor" stroke-width="1.5" stroke-miterlimit="10" stroke-linecap="round" stroke-linejoin="round"/>
<path d="M1.33325 8.00016V10.0002C1.33325 13.3335 2.66659 14.6668 5.99992 14.6668H9.99992C13.3333 14.6668 14.6666 13.3335 14.6666 10.0002V6.00016C14.6666 3.92016 14.1466 2.61348 12.9399 1.93348C12.5999 1.74015 11.9199 1.59348 11.2999 1.49348" stroke="currentColor" stroke-width="1.5" stroke-linecap="round" stroke-linejoin="round"/>
<path d="M8.6665 8.66666H11.9998" stroke="currentColor" stroke-width="1.5" stroke-linecap="round" stroke-linejoin="round"/>
<path d="M7.33325 11.3333H11.9999" stroke="currentColor" stroke-width="1.5" stroke-linecap="round" stroke-linejoin="round"/>
</svg>
