<svg width="16" height="16" viewBox="0 0 16 16" fill="none" xmlns="http://www.w3.org/2000/svg">
<path d="M15.4829 5.63402L10.6864 4.90405L8.54222 0.352133C8.48366 0.227504 8.38731 0.126614 8.2683 0.0652891C7.96982 -0.0890133 7.6071 0.0395719 7.45786 0.352133L5.31371 4.90405L0.517222 5.63402C0.384983 5.6538 0.264079 5.71909 0.171512 5.818C0.0549991 5.9434 -0.00215093 6.09358 6.18312e-05 6.26852C0.00227469 6.44347 0.0632029 6.59201 0.182847 6.71414L3.65317 10.2572L2.83329 15.2601C2.81368 15.3788 2.82551 15.494 2.86879 15.6056C2.91207 15.7172 2.98025 15.8085 3.07334 15.8793C3.16642 15.95 3.27034 15.9897 3.3851 15.9983C3.49986 16.0069 3.6081 15.983 3.70984 15.9268L8.00004 13.5648L12.2902 15.9268C12.4074 15.9921 12.5434 16.0138 12.6737 15.9901C13.0024 15.9307 13.2235 15.6043 13.1668 15.2601L12.3469 10.2572L15.8172 6.71414C15.9117 6.61721 15.974 6.4906 15.9929 6.35212C16.0439 6.00593 15.8135 5.68546 15.4829 5.63402Z" fill="currentColor"/>
</svg>
