<svg width="24" height="24" viewBox="0 0 24 24" fill="none" xmlns="http://www.w3.org/2000/svg">
<path d="M8.41554 10.828H14.0575C14.1889 10.828 14.3189 10.8539 14.4402 10.9041C14.5615 10.9544 14.6718 11.028 14.7646 11.1209C14.8575 11.2138 14.9312 11.324 14.9814 11.4453C15.0317 11.5666 15.0575 11.6967 15.0575 11.828C15.0575 11.9593 15.0317 12.0894 14.9814 12.2107C14.9312 12.332 14.8575 12.4422 14.7646 12.5351C14.6718 12.628 14.5615 12.7016 14.4402 12.7519C14.3189 12.8021 14.1889 12.828 14.0575 12.828H8.41554L9.53754 13.95C9.72505 14.1376 9.83034 14.3921 9.83024 14.6574C9.83015 14.9226 9.72468 15.177 9.53704 15.3645C9.3494 15.552 9.09495 15.6573 8.82968 15.6572C8.56441 15.6571 8.31005 15.5516 8.12254 15.364L5.29454 12.536C5.2012 12.4433 5.12713 12.3331 5.07658 12.2117C5.02602 12.0903 5 11.96 5 11.8285C5 11.697 5.02602 11.5667 5.07658 11.4453C5.12713 11.3239 5.2012 11.2137 5.29454 11.121L8.12154 8.293C8.30905 8.10536 8.56341 7.99989 8.82869 7.9998C9.09396 7.9997 9.3484 8.10499 9.53604 8.2925C9.72368 8.48001 9.82915 8.73438 9.82924 8.99965C9.82934 9.26492 9.72405 9.51936 9.53654 9.707L8.41554 10.828ZM18.0015 3C18.2668 3 18.5211 3.10536 18.7086 3.29289C18.8962 3.48043 19.0015 3.73478 19.0015 4V20C19.0015 20.2652 18.8962 20.5196 18.7086 20.7071C18.5211 20.8946 18.2668 21 18.0015 21C17.7363 21 17.482 20.8946 17.2944 20.7071C17.1069 20.5196 17.0015 20.2652 17.0015 20V4C17.0015 3.73478 17.1069 3.48043 17.2944 3.29289C17.482 3.10536 17.7363 3 18.0015 3Z" fill="currentColor"/>
</svg>
