<svg width="17" height="16" viewBox="0 0 17 16" fill="none" xmlns="http://www.w3.org/2000/svg">
<path d="M3.52155 4.64149C3.3011 3.12521 4.3268 1.75994 5.89493 1.2596C6.47244 1.07534 7.08769 1.39158 7.29956 1.98159L7.8023 3.38162C7.96777 3.84243 7.84853 4.36189 7.50096 4.6945L6.00567 6.12543C5.85594 6.26872 5.78945 6.48449 5.83018 6.69216L5.84348 6.7552C5.85174 6.79284 5.86389 6.84612 5.8803 6.91273C5.91307 7.04583 5.96297 7.23298 6.03283 7.45582C6.17181 7.89913 6.3934 8.49536 6.72311 9.09115C7.05282 9.68695 7.43695 10.1853 7.73544 10.5325C7.88549 10.707 8.01591 10.8457 8.10999 10.9419C8.15709 10.99 8.19523 11.0277 8.22235 11.0539L8.26878 11.0982C8.4208 11.2388 8.63241 11.2858 8.82622 11.2222L10.7617 10.5867C11.2116 10.4389 11.7023 10.591 12.0022 10.9708L12.9177 12.1312C13.2989 12.6142 13.254 13.3232 12.8155 13.7498C11.6157 14.9169 9.96599 15.1559 8.8177 14.1933C7.7107 13.2653 6.40789 11.8862 5.31955 9.93429C4.22867 7.97786 3.73478 6.10795 3.52155 4.64149ZM7.04199 6.77152L8.28296 5.58396C8.97811 4.91872 9.21658 3.87979 8.88565 2.9582L8.3829 1.55815C7.95659 0.37098 6.71862 -0.265351 5.55659 0.105414C3.61 0.726513 2.04701 2.54763 2.37776 4.8225C2.60876 6.41119 3.14302 8.43112 4.31957 10.5412C5.49133 12.6427 6.89579 14.1305 8.09307 15.1341C9.81387 16.5767 12.1122 16.084 13.6045 14.6326C14.49 13.7711 14.5805 12.3395 13.811 11.3642L12.8953 10.2038C12.2958 9.44396 11.3142 9.13995 10.4143 9.43542L8.80807 9.96288C8.74629 9.89664 8.67472 9.81744 8.59668 9.72664C8.33276 9.41965 8.00264 8.98938 7.725 8.48767C7.44736 7.98598 7.25526 7.47258 7.13239 7.08063C7.09605 6.96471 7.06609 6.86044 7.04199 6.77152Z" fill="currentColor"/>
</svg>
