<svg width="24" height="24" viewBox="0 0 24 24" fill="none" xmlns="http://www.w3.org/2000/svg">
<path d="M20.2012 19.2034H3.79503C2.74893 19.2034 1.89844 18.3523 1.89844 17.3069V6.70128C1.89844 5.6556 2.74914 4.80469 3.79481 4.80469H20.2009C21.2466 4.80469 22.0973 5.6556 22.0973 6.70128V17.3069C22.0973 18.3525 21.2468 19.2034 20.2012 19.2034ZM3.79503 5.8678C3.57403 5.86797 3.36213 5.95583 3.20585 6.1121C3.04958 6.26838 2.96172 6.48028 2.96155 6.70128V17.3069C2.96172 17.5278 3.04955 17.7397 3.20578 17.896C3.362 18.0522 3.57385 18.1401 3.79481 18.1403H20.2009C20.4219 18.1401 20.6337 18.0522 20.79 17.896C20.9462 17.7397 21.034 17.5278 21.0342 17.3069V6.70128C21.034 6.48031 20.9462 6.26844 20.79 6.11218C20.6337 5.95591 20.4219 5.86802 20.2009 5.8678H3.79503Z" fill="currentColor"/>
<path d="M2.42969 7.92188H21.5657V11.0634H2.42969V7.92188ZM6.14122 16.2265H5.40214C5.26117 16.2265 5.12596 16.1705 5.02628 16.0708C4.92659 15.9711 4.87059 15.8359 4.87059 15.6949C4.87059 15.5539 4.92659 15.4187 5.02628 15.319C5.12596 15.2194 5.26117 15.1634 5.40214 15.1634H6.14143C6.28241 15.1634 6.41761 15.2194 6.5173 15.319C6.61698 15.4187 6.67298 15.5539 6.67298 15.6949C6.67298 15.8359 6.61698 15.9711 6.5173 16.0708C6.41761 16.1705 6.28241 16.2265 6.14143 16.2265H6.14122ZM11.9977 16.2265H8.64675C8.50578 16.2265 8.37057 16.1705 8.27089 16.0708C8.1712 15.9711 8.1152 15.8359 8.1152 15.6949C8.1152 15.5539 8.1712 15.4187 8.27089 15.319C8.37057 15.2194 8.50578 15.1634 8.64675 15.1634H11.9977C12.1387 15.1634 12.2739 15.2194 12.3735 15.319C12.4732 15.4187 12.5292 15.5539 12.5292 15.6949C12.5292 15.8359 12.4732 15.9711 12.3735 16.0708C12.2739 16.1705 12.1387 16.2265 11.9977 16.2265Z" fill="currentColor"/>
</svg>
