<svg width="24" height="24" viewBox="0 0 24 24" fill="none" xmlns="http://www.w3.org/2000/svg">
<path d="M11.3684 23C6.97605 23 4.77986 23 3.41532 21.7113C2.05078 20.4225 2.05078 18.3484 2.05078 14.2L2.05078 9.8C2.05078 5.65164 2.05078 3.57746 3.41532 2.28873C4.77986 1 6.97605 1 11.3684 1L12.5331 1C16.9255 1 19.1217 1 20.4862 2.28873C21.8508 3.57746 21.8508 5.65164 21.8508 9.8M11.4008 23H13.0508" stroke="currentColor" stroke-width="1.5" stroke-linecap="round"/>
<path d="M7.55078 6.5H16.3508" stroke="currentColor" stroke-width="1.5" stroke-linecap="round"/>
<path d="M7.55078 12H13.0508" stroke="currentColor" stroke-width="1.5" stroke-linecap="round"/>
<path d="M18.0016 19.2462L17.0092 22.7148C16.9645 22.8889 17.1368 23.04 17.304 22.9732L19.4882 22.101C19.5931 22.0591 19.7101 22.0591 19.815 22.101L22.02 22.9816C22.1831 23.0467 22.3532 22.9041 22.317 22.7324L21.4763 19.1378M22.9516 16.3923C22.9516 14.5727 21.4741 13.0977 19.6516 13.0977C17.829 13.0977 16.3516 14.5727 16.3516 16.3923C16.3516 18.2119 17.829 19.6869 19.6516 19.6869C21.4741 19.6869 22.9516 18.2119 22.9516 16.3923Z" stroke="currentColor" stroke-width="1.5" stroke-linejoin="round"/>
</svg>
