<svg width="24" height="24" viewBox="0 0 24 24" fill="none" xmlns="http://www.w3.org/2000/svg">
<path d="M21.3175 7.14146L20.8239 6.28486C20.4506 5.63702 20.264 5.31311 19.9464 5.18394C19.6288 5.05478 19.2696 5.1567 18.5513 5.36054L17.3311 5.70424C16.8725 5.81 16.3913 5.75001 15.9726 5.53486L15.6357 5.34048C15.2766 5.1105 15.0004 4.7714 14.8475 4.3728L14.5136 3.37542C14.294 2.7154 14.1842 2.38539 13.9228 2.19663C13.6615 2.00787 13.3143 2.00787 12.6199 2.00787H11.5051C10.8108 2.00787 10.4636 2.00787 10.2022 2.19663C9.94085 2.38539 9.83106 2.7154 9.61149 3.37542L9.27753 4.3728C9.12465 4.7714 8.84845 5.1105 8.48937 5.34048L8.15249 5.53486C7.73374 5.75001 7.25259 5.81 6.79398 5.70424L5.57375 5.36054C4.85541 5.1567 4.49625 5.05478 4.17867 5.18394C3.86109 5.31311 3.67445 5.63702 3.30115 6.28486L2.80757 7.14146C2.45766 7.7487 2.2827 8.05233 2.31666 8.37555C2.35061 8.69877 2.58483 8.95924 3.05326 9.48018L4.0843 10.6329C4.3363 10.9519 4.51521 11.5079 4.51521 12.0077C4.51521 12.5079 4.33636 13.0637 4.08433 13.3828L3.05326 14.5355C2.58483 15.0564 2.35062 15.3169 2.31666 15.6401C2.2827 15.9633 2.45766 16.267 2.80757 16.8742L3.30114 17.7308C3.67443 18.3786 3.86109 18.7026 4.17867 18.8317C4.49625 18.9609 4.85542 18.8589 5.57377 18.6551L6.79394 18.3114C7.25263 18.2056 7.73387 18.2656 8.15267 18.4809L8.4895 18.6753C8.84851 18.9052 9.12464 19.2443 9.2775 19.6428L9.61149 20.6403C9.83106 21.3003 9.94085 21.6304 10.2022 21.8191C10.4636 22.0079 10.8108 22.0079 11.5051 22.0079H12.6199C13.3143 22.0079 13.6615 22.0079 13.9228 21.8191C14.1842 21.6304 14.294 21.3003 14.5136 20.6403L14.8476 19.6428C15.0004 19.2443 15.2765 18.9052 15.6356 18.6753L15.9724 18.4809C16.3912 18.2656 16.8724 18.2056 17.3311 18.3114L18.5513 18.6551C19.2696 18.8589 19.6288 18.9609 19.9464 18.8317C20.264 18.7026 20.4506 18.3786 20.8239 17.7308L21.3175 16.8742C21.6674 16.267 21.8423 15.9633 21.8084 15.6401C21.7744 15.3169 21.5402 15.0564 21.0718 14.5355L20.0407 13.3828C19.7887 13.0637 19.6098 12.5079 19.6098 12.0077C19.6098 11.5079 19.7888 10.9519 20.0407 10.6329L21.0718 9.48018C21.5402 8.95924 21.7744 8.69877 21.8084 8.37555C21.8423 8.05233 21.6674 7.7487 21.3175 7.14146Z" stroke="currentColor" stroke-width="1.5" stroke-linecap="round"/>
<path d="M15.5195 12C15.5195 13.933 13.9525 15.5 12.0195 15.5C10.0865 15.5 8.51953 13.933 8.51953 12C8.51953 10.067 10.0865 8.5 12.0195 8.5C13.9525 8.5 15.5195 10.067 15.5195 12Z" stroke="currentColor" stroke-width="1.5"/>
</svg>
