<svg width="24" height="24" viewBox="0 0 24 24" fill="none" xmlns="http://www.w3.org/2000/svg">
<path d="M12 1.875C12.0911 1.87503 12.1811 1.89514 12.2637 1.93359L20.9004 5.96387C21.008 6.01409 21.0992 6.09424 21.1631 6.19434C21.2269 6.29461 21.2617 6.41139 21.2617 6.53027V7.00098C21.2617 7.30069 21.2608 7.7293 21.2607 8.24316V15.7842C21.2606 16.2988 21.2599 16.7283 21.2598 17.0293V17.5137C21.2547 17.5915 21.2345 17.6673 21.2012 17.7373L21.1631 17.8057C21.1077 17.8931 21.0308 17.9643 20.9404 18.0146C20.9376 18.0162 20.9344 18.0191 20.9336 18.0195L20.9326 18.0205L20.9297 18.0215C20.9284 18.0221 20.9267 18.0225 20.9248 18.0234C20.9203 18.0255 20.9137 18.0293 20.9053 18.0332C20.8885 18.0411 20.8639 18.0525 20.832 18.0674C20.768 18.0973 20.6744 18.1408 20.5557 18.1963C20.3179 18.3074 19.9788 18.4665 19.5723 18.6562C18.7592 19.0359 17.6754 19.5406 16.5928 20.0459C15.5102 20.5512 14.4278 21.0568 13.6162 21.4355C13.2106 21.6248 12.8723 21.7831 12.6357 21.8936C12.5176 21.9487 12.4246 21.9919 12.3613 22.0215C12.3298 22.0362 12.3054 22.0471 12.2891 22.0547C12.281 22.0585 12.2747 22.0615 12.2705 22.0635C12.2684 22.0644 12.2667 22.0659 12.2656 22.0664H12.2646H12.2637C12.1173 22.1346 11.9511 22.1438 11.7998 22.0928L11.7354 22.0664H11.7334C11.7324 22.0659 11.7314 22.0644 11.7295 22.0635C11.7254 22.0615 11.7191 22.0585 11.7109 22.0547C11.6946 22.0471 11.6702 22.0362 11.6387 22.0215C11.5753 21.9919 11.4816 21.9488 11.3633 21.8936C11.1266 21.7831 10.7886 21.6249 10.3828 21.4355C9.57122 21.0568 8.48887 20.5512 7.40625 20.0459C6.32382 19.5407 5.24074 19.0358 4.42773 18.6562C4.02119 18.4664 3.68216 18.3074 3.44434 18.1963C3.32565 18.1408 3.23204 18.0974 3.16797 18.0674C3.13593 18.0524 3.11054 18.0411 3.09375 18.0332C3.08557 18.0294 3.07962 18.0255 3.0752 18.0234C3.07303 18.0224 3.07068 18.0221 3.06934 18.0215L3.06543 18.0195C3.06429 18.0189 3.0612 18.0171 3.05859 18.0156V18.0146C2.96829 17.9643 2.89126 17.8931 2.83594 17.8057L2.83691 17.8047C2.78075 17.7172 2.74704 17.6174 2.74023 17.5137L2.73926 17.4961V15.7842C2.73907 14.7547 2.73841 13.3826 2.73828 12.0117V6.53027C2.73831 6.41139 2.77208 6.29461 2.83594 6.19434C2.89978 6.09416 2.99101 6.01414 3.09863 5.96387L11.7354 1.93359L11.8643 1.88965C11.9086 1.87981 11.9543 1.875 12 1.875ZM3.98828 17.0713L11.375 20.5186V11.2461L3.98828 7.79883V17.0713ZM12.625 11.2461V20.5186L20.0117 17.0713V7.79883L12.625 11.2461ZM8.74316 8.63867L11.999 10.1582L19.4658 6.67383L16.21 5.1543L8.74316 8.63867ZM4.53223 6.6748L7.26465 7.94922L14.7324 4.46484L11.999 3.18945L4.53223 6.6748Z" fill="currentColor" stroke="currentColor" stroke-width="0.25"/>
</svg>
