<svg width="24" height="20" viewBox="0 0 24 20" fill="none" xmlns="http://www.w3.org/2000/svg">
<path d="M7.539 20C16.596 20 21.5505 12.3035 21.5505 5.64077C21.5505 5.42539 21.5505 5.20694 21.5415 4.99157C22.5061 4.27543 23.3386 3.38881 24 2.37325C23.099 2.78069 22.1441 3.04922 21.1665 3.17013C22.1963 2.53884 22.9676 1.54555 23.337 0.374893C22.3695 0.962744 21.3105 1.37541 20.2065 1.59483C19.4643 0.784138 18.4821 0.24708 17.4121 0.0668435C16.3422 -0.113393 15.2441 0.0732493 14.288 0.597861C13.3319 1.12247 12.5712 1.95578 12.1237 2.96869C11.6761 3.98161 11.5668 5.11761 11.8125 6.20074C9.85461 6.10005 7.93922 5.57841 6.19056 4.66965C4.4419 3.76089 2.89903 2.48531 1.662 0.925632C1.03401 2.03801 0.842361 3.35381 1.12597 4.60585C1.40958 5.85788 2.14718 6.95228 3.189 7.66681C2.40831 7.63961 1.64478 7.42461 0.96 7.03915V7.10838C0.961346 8.27367 1.35496 9.40275 2.07431 10.3048C2.79366 11.2068 3.79462 11.8264 4.908 12.0589C4.48539 12.1783 4.04884 12.2378 3.6105 12.2358C3.30148 12.2368 2.99307 12.2074 2.6895 12.1481C3.00418 13.1512 3.61691 14.0283 4.44187 14.6564C5.26683 15.2845 6.2627 15.6323 7.29 15.651C5.54483 17.0568 3.3891 17.8192 1.17 17.8155C0.778981 17.8172 0.388235 17.7941 0 17.7463C2.25227 19.2189 4.86795 20.0008 7.539 20Z" fill="currentColor"/>
</svg>
